<?xml version="1.0" encoding="utf-8"?>
<!-- Generated by IcoMoon.io -->
<!DOCTYPE svg PUBLIC "-//W3C//DTD SVG 1.1//EN" "http://www.w3.org/Graphics/SVG/1.1/DTD/svg11.dtd">
<svg version="1.1" xmlns="http://www.w3.org/2000/svg" xmlns:xlink="http://www.w3.org/1999/xlink" width="250" height="250" viewBox="0 0 250 250">
<g id="icomoon-ignore">
	<line stroke-width="1" x1="" y1="" x2="" y2="" stroke="#449FDB" opacity=""></line>
</g>
	<path d="M187.672 127.013c-15.089 10.446-30.275 20.893-45.268 31.437-6.287 4.353-16.927 13.251-24.762 13.251h-0.194c-7.835 0-18.475-8.898-24.762-13.251-14.993-10.544-30.178-20.99-45.171-31.437-6.868-4.643-16.637-15.572-16.637-24.375 0-9.479 5.126-17.604 15.476-17.604h142.38c8.415 0 15.476 6.964 15.476 15.476 0.002 10.834-8.026 20.603-16.538 26.503zM204.212 205.748c0 8.512-6.964 15.476-15.476 15.476h-142.38c-8.512 0-15.476-6.964-15.476-15.476v-76.801c2.902 3.192 6.19 5.997 9.769 8.415 16.057 10.931 32.307 21.86 48.073 33.371 8.125 5.996 18.185 13.348 28.728 13.348h0.194c10.543 0 20.603-7.352 28.728-13.348 15.767-11.414 32.016-22.44 48.169-33.371 3.482-2.418 6.771-5.223 9.673-8.415v76.801z" fill="#000000"></path>
</svg>
