<?xml version="1.0" encoding="utf-8"?>
<!-- Generator: Adobe Illustrator 16.0.0, SVG Export Plug-In . SVG Version: 6.00 Build 0)  -->
<!DOCTYPE svg PUBLIC "-//W3C//DTD SVG 1.1 Tiny//EN" "http://www.w3.org/Graphics/SVG/1.1/DTD/svg11-tiny.dtd">
<svg version="1.1" baseProfile="tiny" id="Layer_1" xmlns="http://www.w3.org/2000/svg" xmlns:xlink="http://www.w3.org/1999/xlink"
	 x="0px" y="0px" width="1417.32px" height="1417.32px" viewBox="0 0 1417.32 1417.32" xml:space="preserve">
<path fill="none" d="M857.155,849.599c-91.643,0-166.387,74.744-166.387,166.387v57.846c-13.002,11.699-20.801,28.598-20.801,46.146
	c0,34.446,27.951,62.395,62.398,62.395s62.395-27.948,62.395-62.395c0-17.549-7.799-34.447-20.798-46.146v-57.846
	c0-45.496,37.697-83.193,83.193-83.193s83.193,37.697,83.193,83.193v57.846c-12.999,11.699-20.798,28.598-20.798,46.146
	c0,34.446,27.947,62.395,62.395,62.395s62.395-27.948,62.395-62.395c0-17.549-7.799-34.447-20.798-46.146v-57.846
	c0-59.146-31.848-114.391-83.193-143.639c0-27.306,1.499-55.685-0.814-83.284c-0.419,0.108-0.834,0.227-1.254,0.334
	c-15.3,4.214-32.083,7.463-51.271,9.926l-4.438,0.57h-4.476h-1.854c-6.531,0-12.997-0.767-19.283-2.249
	c0.146,3.442,0.197,6.9,0.197,10.358V849.599z"/>
<path fill="none" d="M893.698,567.012c7.501,18.494,18.735,35.077,32.773,48.809c-16.512,38.563-37.404,57.067-56.156,78.18
	c-5.547,6.654-11.824,12.215-9.984,21.457c0,0,0,0,0,0.364c1.84,8.146,8.495,14.071,15.91,14.071c0.364,0,1.11,0,1.854,0
	c14.436-1.854,28.871-4.438,42.182-8.145c50.989-12.976,97.981-34.866,139.49-64.932h111.021
	c79.422,0,143.789-64.397,143.789-143.791V369.234c0-79.422-64.367-143.79-143.789-143.79h-143.792
	c-79.421,0-143.79,64.368-143.79,143.79v60.756c10.046,27.047,15.546,56.3,15.546,86.834
	C898.752,534.014,897.011,550.798,893.698,567.012z"/>
<path fill="#D33031" d="M1170.788,225.444h-143.792c-79.421,0-143.79,64.368-143.79,143.79v60.756v83.035
	c0,1.226,0.017,2.448,0.047,3.667c0.011,0.432,0.033,0.861,0.048,1.292c0.026,0.783,0.051,1.565,0.09,2.345
	c0.027,0.53,0.064,1.057,0.097,1.585c0.042,0.676,0.08,1.352,0.131,2.025c0.043,0.576,0.098,1.149,0.147,1.724
	c0.054,0.618,0.105,1.237,0.167,1.854c0.062,0.612,0.133,1.221,0.201,1.83c0.065,0.572,0.128,1.145,0.199,1.714
	c0.08,0.639,0.17,1.276,0.258,1.913c0.074,0.533,0.147,1.067,0.228,1.599c0.1,0.664,0.208,1.326,0.316,1.987
	c0.082,0.496,0.163,0.991,0.25,1.485c0.121,0.689,0.249,1.375,0.38,2.06c0.088,0.46,0.176,0.92,0.269,1.378
	c0.143,0.71,0.291,1.417,0.444,2.124c0.093,0.425,0.186,0.85,0.281,1.273c0.166,0.733,0.338,1.465,0.516,2.194
	c0.094,0.387,0.189,0.774,0.287,1.16c0.191,0.758,0.387,1.514,0.59,2.267c0.094,0.346,0.189,0.692,0.285,1.038
	c0.218,0.785,0.44,1.569,0.672,2.349c0.09,0.304,0.183,0.606,0.274,0.908c0.247,0.815,0.499,1.628,0.76,2.437
	c0.082,0.254,0.167,0.506,0.251,0.759c0.28,0.851,0.564,1.7,0.86,2.543c0.068,0.195,0.14,0.389,0.209,0.584
	c0.318,0.896,0.642,1.791,0.978,2.679c0.043,0.114,0.088,0.227,0.132,0.341c7.48,19.651,19.139,37.244,33.899,51.682
	c-16.512,38.563-37.404,57.067-56.156,78.18c-5.547,6.654-11.824,12.215-9.984,21.457c0,0,0,0,0,0.364
	c1.84,8.146,8.495,14.071,15.91,14.071c0.364,0,1.11,0,1.854,0c14.436-1.854,28.871-4.438,42.182-8.145
	c50.989-12.976,97.981-34.866,139.49-64.932h111.021c79.422,0,143.789-64.397,143.789-143.791V369.234
	C1314.577,289.812,1250.21,225.444,1170.788,225.444z"/>
<path fill="#010101" d="M357.992,1057.582c0,22.748,18.849,41.597,41.597,41.597s41.597-18.849,41.597-41.597
	s-18.849-41.597-41.597-41.597S357.992,1034.834,357.992,1057.582z"/>
<path fill="#010101" d="M940.349,872.347c51.346,29.248,83.193,84.493,83.193,143.639v57.846
	c12.999,11.699,20.798,28.598,20.798,46.146c0,34.446-27.947,62.395-62.395,62.395s-62.395-27.948-62.395-62.395
	c0-17.549,7.799-34.447,20.798-46.146v-57.846c0-45.496-37.697-83.193-83.193-83.193s-83.193,37.697-83.193,83.193v57.846
	c12.999,11.699,20.798,28.598,20.798,46.146c0,34.446-27.947,62.395-62.395,62.395s-62.398-27.948-62.398-62.395
	c0-17.549,7.799-34.447,20.801-46.146v-57.846c0-91.643,74.744-166.387,166.387-166.387v-41.597c0-3.458-0.052-6.916-0.197-10.358
	c-13.641-3.215-26.433-9.812-37.188-19.343c-3.353-2.971-6.445-6.172-9.278-9.565c-48.375,29.735-104.186,46.416-161.322,46.416
	c-69.544,0-137.139-24.698-191.735-67.595c-14.299,17.549-16.249,38.997-16.249,60.445v131.939
	c49.396,17.549,83.193,64.995,83.193,117.641c0,68.895-55.896,124.79-124.79,124.79s-124.79-55.896-124.79-124.79
	c0-52.646,33.147-100.092,83.193-117.641V808.002c0-26.647,3.9-53.296,14.299-77.994
	c-154.688,33.798-180.686,237.882-180.686,367.221c0,105.942,69.544,168.337,173.536,168.337h568.058
	c103.992,0,173.536-62.395,173.536-168.337c0-103.886-16.775-255.989-103.533-329.347c-20.54,8.448-41.789,15.517-63.668,21.181
	C941.848,816.662,940.349,845.041,940.349,872.347z"/>
<path fill="#010101" d="M799.495,673.204c5.405-10.566,11.875-18.035,15.74-22.498c0.436-0.502,0.878-1.008,1.311-1.526l0.703-0.844
	l0.729-0.821c3.563-4.011,7.033-7.768,10.39-11.4c5.077-5.495,9.655-10.45,13.853-15.494c-4.351-7.47-8.255-15.223-11.701-23.24
	c-11.488-26.725-17.313-55.106-17.313-84.355V369.234c0-12.701,1.102-25.241,3.285-37.555
	c-44.273-40.039-102.958-64.435-167.322-64.435c-137.789,0-249.58,111.791-249.58,249.58s111.791,249.58,249.58,249.58
	c52.389,0,101.007-16.171,141.162-43.773v-2.895C788.917,703.717,792.029,687.799,799.495,673.204z"/>
</svg>
