<?xml version="1.0" encoding="utf-8"?>
<!-- Generator: Adobe Illustrator 16.0.0, SVG Export Plug-In . SVG Version: 6.00 Build 0)  -->
<!DOCTYPE svg PUBLIC "-//W3C//DTD SVG 1.1 Tiny//EN" "http://www.w3.org/Graphics/SVG/1.1/DTD/svg11-tiny.dtd">
<svg version="1.1" baseProfile="tiny" id="Layer_1" xmlns="http://www.w3.org/2000/svg" xmlns:xlink="http://www.w3.org/1999/xlink"
	 x="0px" y="0px" width="1417.32px" height="1417.32px" viewBox="0 0 1417.32 1417.32" xml:space="preserve">
<path fill="#D33031" d="M1094.453,315.382c-99.098,0-181.748,70.339-200.774,163.808l0,0c-0.019,0.091-0.034,0.183-0.053,0.274
	c-0.316,1.567-0.619,3.141-0.899,4.722c-0.008,0.041-0.013,0.082-0.021,0.122c-0.586,3.309-1.094,6.644-1.52,10.005
	c-0.002,0.017-0.003,0.034-0.006,0.051c-0.212,1.682-0.404,3.37-0.576,5.064c-0.016,0.157-0.026,0.315-0.042,0.472
	c-0.153,1.556-0.295,3.116-0.414,4.683c-0.028,0.373-0.045,0.749-0.071,1.122c-0.095,1.354-0.188,2.708-0.256,4.069
	c-0.039,0.754-0.057,1.513-0.087,2.27c-0.039,0.988-0.087,1.974-0.112,2.965c-0.044,1.751-0.066,3.508-0.066,5.27
	c0,1.706,0.023,3.406,0.064,5.102c0.014,0.563,0.041,1.123,0.06,1.686c0.036,1.131,0.073,2.263,0.129,3.39
	c0.032,0.667,0.078,1.331,0.117,1.997c0.06,1.016,0.118,2.032,0.192,3.044c0.053,0.71,0.115,1.417,0.175,2.125
	c0.081,0.963,0.162,1.925,0.256,2.884c0.071,0.729,0.152,1.456,0.231,2.184c0.102,0.932,0.205,1.864,0.319,2.792
	c0.091,0.738,0.188,1.474,0.286,2.209c0.122,0.913,0.248,1.824,0.382,2.733c0.109,0.739,0.223,1.476,0.34,2.212
	c0.143,0.902,0.292,1.802,0.447,2.701c0.126,0.733,0.255,1.465,0.389,2.195c0.165,0.897,0.338,1.792,0.515,2.685
	c0.143,0.724,0.286,1.448,0.437,2.169c0.187,0.894,0.384,1.785,0.582,2.674c0.159,0.713,0.315,1.427,0.482,2.137
	c0.21,0.899,0.433,1.793,0.655,2.687c0.172,0.692,0.34,1.385,0.519,2.074c0.24,0.926,0.495,1.846,0.749,2.767
	c0.178,0.649,0.35,1.301,0.534,1.948c0.291,1.016,0.598,2.025,0.903,3.035c0.164,0.545,0.32,1.093,0.489,1.635
	c0.476,1.523,0.967,3.039,1.477,4.546c0.186,0.549,0.384,1.092,0.574,1.639c0.338,0.974,0.674,1.949,1.026,2.917
	c0.249,0.683,0.511,1.358,0.767,2.037c0.311,0.825,0.618,1.651,0.939,2.471c0.28,0.717,0.572,1.427,0.86,2.14
	c0.313,0.772,0.624,1.546,0.945,2.313c0.307,0.731,0.623,1.457,0.938,2.184c0.32,0.741,0.641,1.481,0.97,2.217
	c0.329,0.736,0.665,1.468,1.003,2.2c0.33,0.716,0.662,1.431,1,2.143c0.352,0.74,0.71,1.476,1.07,2.211
	c0.339,0.691,0.681,1.38,1.026,2.066c0.376,0.745,0.756,1.487,1.14,2.227c0.346,0.666,0.696,1.328,1.05,1.989
	c0.399,0.748,0.801,1.494,1.209,2.236c0.352,0.641,0.71,1.277,1.069,1.913c0.424,0.752,0.85,1.504,1.283,2.251
	c0.354,0.609,0.714,1.212,1.074,1.817c0.453,0.764,0.906,1.527,1.37,2.284c0.346,0.564,0.699,1.122,1.051,1.683
	c0.492,0.787,0.982,1.575,1.484,2.354c0.312,0.483,0.633,0.959,0.948,1.439c0.556,0.847,1.109,1.696,1.678,2.534
	c0.134,0.197,0.273,0.391,0.407,0.587c2.271,3.323,4.639,6.574,7.097,9.753c0.217,0.281,0.43,0.566,0.648,0.846
	c0.676,0.864,1.364,1.718,2.053,2.571c0.298,0.368,0.591,0.738,0.89,1.104c0.67,0.818,1.351,1.625,2.032,2.433
	c0.329,0.389,0.655,0.781,0.987,1.167c0.681,0.793,1.371,1.578,2.063,2.361c0.342,0.386,0.682,0.773,1.026,1.157
	c0.7,0.779,1.407,1.551,2.119,2.319c0.347,0.374,0.692,0.748,1.042,1.12c0.724,0.771,1.454,1.534,2.19,2.293
	c0.343,0.354,0.687,0.706,1.032,1.058c0.756,0.769,1.517,1.532,2.284,2.289c0.328,0.323,0.659,0.645,0.989,0.966
	c0.796,0.774,1.596,1.543,2.404,2.305c0.3,0.283,0.604,0.562,0.905,0.843c0.851,0.791,1.704,1.579,2.568,2.355
	c0.24,0.216,0.483,0.429,0.725,0.644c0.936,0.833,1.875,1.662,2.826,2.479c0.112,0.097,0.227,0.191,0.34,0.288
	c6.788,5.803,13.96,11.169,21.473,16.058c0.065,0.042,0.13,0.085,0.194,0.128c1.158,0.751,2.325,1.488,3.499,2.216
	c0.154,0.096,0.308,0.193,0.462,0.289c1.133,0.699,2.274,1.384,3.422,2.062c0.194,0.115,0.389,0.231,0.584,0.346
	c1.132,0.663,2.271,1.314,3.418,1.957c0.209,0.117,0.418,0.234,0.628,0.351c1.149,0.639,2.307,1.268,3.471,1.885
	c0.198,0.105,0.397,0.21,0.596,0.314c1.188,0.625,2.38,1.239,3.58,1.841c0.163,0.082,0.326,0.162,0.489,0.243
	c1.246,0.621,2.498,1.231,3.758,1.827c0.089,0.042,0.178,0.083,0.267,0.125c12.399,5.841,25.478,10.475,39.087,13.751
	c0.077,0.019,0.153,0.037,0.229,0.056c1.421,0.341,2.849,0.664,4.282,0.975c0.135,0.03,0.271,0.06,0.406,0.089
	c1.403,0.302,2.812,0.587,4.225,0.859c0.16,0.031,0.319,0.062,0.479,0.092c1.409,0.269,2.822,0.522,4.241,0.761
	c0.152,0.025,0.306,0.051,0.458,0.076c1.438,0.238,2.881,0.464,4.329,0.673c0.112,0.017,0.226,0.031,0.339,0.047
	c1.498,0.214,3,0.413,4.508,0.594c0.005,0.001,0.01,0.001,0.015,0.002l0,0c8.075,0.967,16.29,1.478,24.625,1.478
	c113.161,0,204.897-91.737,204.897-204.902C1299.351,407.119,1207.614,315.382,1094.453,315.382z"/>
<path fill="#010101" d="M900.065,714.664c-25.223-25.225-45.033-54.617-58.881-87.361c-14.352-33.936-21.629-69.943-21.629-107.024
	c0-13.864,1.019-27.578,3.043-41.09H251.957c-60.015,0-89.741,47.114-89.741,102.081c0,51.041,56.649,114.42,96.472,141.342
	c86.937,60.575,174.996,121.15,261.932,182.287c36.458,25.239,98.155,76.841,143.586,76.841h0.561h0.561
	c45.431,0,107.128-51.602,143.585-76.841c61.309-43.114,123.175-85.947,185.009-128.699c-2.174-0.855-4.34-1.738-6.497-2.65
	C954.681,759.7,925.289,739.889,900.065,714.664z"/>
<path fill="#010101" d="M1092.712,795.16c-87.553,59.28-175.401,119.146-260.803,180.972
	c-47.113,34.774-105.445,77.401-166.582,77.401h-0.561h-0.561c-61.136,0-119.468-42.627-166.582-77.401
	C406.2,909.387,311.972,846.007,218.865,782.627c-20.752-14.022-39.822-30.288-56.649-48.797v445.341
	c0,49.357,40.384,89.741,89.741,89.741h825.619c49.357,0,89.741-40.384,89.741-89.741V785.402
	c-23.605,6.488-47.992,9.779-72.864,9.779C1093.872,795.182,1093.293,795.164,1092.712,795.16z"/>
</svg>
