<?xml version="1.0" encoding="utf-8"?>
<!-- Generated by IcoMoon.io -->
<!DOCTYPE svg PUBLIC "-//W3C//DTD SVG 1.1//EN" "http://www.w3.org/Graphics/SVG/1.1/DTD/svg11.dtd">
<svg version="1.1" xmlns="http://www.w3.org/2000/svg" xmlns:xlink="http://www.w3.org/1999/xlink" width="250" height="250" viewBox="0 0 250 250">
<g id="icomoon-ignore">
	<line stroke-width="1" x1="" y1="" x2="" y2="" stroke="#449FDB" opacity=""></line>
</g>
	<path d="M165.229 223.322h-100.075c-18.32 0-30.572-10.992-30.572-29.656 0-22.785 4.58-58.739 31.832-64.693-1.832 4.352-2.519 9.046-2.519 13.74v23.244c-8.816 3.092-14.656 11.45-14.656 20.725 0 12.137 9.847 21.984 21.984 21.984s21.984-9.848 21.984-21.984c0-9.274-5.954-17.633-14.656-20.725v-23.244c0-3.778 0.344-7.557 2.862-10.648 9.618 7.557 21.526 11.908 33.778 11.908s24.16-4.352 33.778-11.908c2.519 3.092 2.862 6.87 2.862 10.648v7.328c-16.145 0-29.312 13.168-29.312 29.312v10.19c-2.29 2.062-3.664 5.038-3.664 8.13 0 6.068 4.924 10.992 10.992 10.992s10.992-4.924 10.992-10.992c0-3.092-1.374-6.068-3.664-8.13v-10.19c0-8.016 6.641-14.656 14.656-14.656s14.656 6.641 14.656 14.656v10.19c-2.29 2.062-3.664 5.038-3.664 8.13 0 6.068 4.924 10.992 10.992 10.992s10.992-4.924 10.992-10.992c0-3.092-1.374-6.068-3.664-8.13v-10.19c0-10.42-5.61-20.152-14.656-25.305 0-8.359 0.802-17.29-2.52-25.076 27.252 5.954 31.832 41.908 31.832 64.693 0.002 18.665-12.25 29.657-30.57 29.657zM71.223 194.010c-4.008 0-7.328-3.32-7.328-7.328s3.32-7.328 7.328-7.328 7.328 3.32 7.328 7.328-3.321 7.328-7.328 7.328zM115.191 135.385c-24.274 0-43.969-19.694-43.969-43.969s19.694-43.969 43.969-43.969 43.969 19.694 43.969 43.969-19.694 43.969-43.969 43.969z" fill="#000000"></path>
</svg>
