<?xml version="1.0" encoding="utf-8"?>
<!-- Generator: Adobe Illustrator 18.0.0, SVG Export Plug-In . SVG Version: 6.00 Build 0)  -->
<!DOCTYPE svg PUBLIC "-//W3C//DTD SVG 1.1//EN" "http://www.w3.org/Graphics/SVG/1.1/DTD/svg11.dtd">
<svg version="1.1" id="Layer_1" xmlns="http://www.w3.org/2000/svg" xmlns:xlink="http://www.w3.org/1999/xlink" x="0px" y="0px"
	 viewBox="0 0 1417.3 1417.3" enable-background="new 0 0 1417.3 1417.3" xml:space="preserve">
<g>
	<g>
		<path fill="#010101" d="M1264.5,1205c0,35.9-29.1,65-65,65H203c-35.9,0-65-29.1-65-65V988.4c0-35.9,29.1-65,65-65h314.8l91.4,92.1
			c25.1,24.4,57.6,37.9,92.1,37.9c34.5,0,67-13.5,92.1-37.9l92.1-92.1h314.1c35.9,0,65,29.1,65,65L1264.5,1205L1264.5,1205z"/>
	</g>
	<path fill="#7DC242" d="M1035,650.5L731.7,953.8c-8.1,8.8-19.6,12.9-30.5,12.9s-22.4-4.1-30.5-12.9L367.5,650.5
		c-12.8-12.2-16.2-31.1-9.5-47.4c6.8-15.6,22.3-26.4,39.9-26.4h173.3V273.4c0-23.7,19.6-43.3,43.3-43.3h173.3
		c23.7,0,43.3,19.6,43.3,43.3v303.3h173.3c17.6,0,33.2,10.8,39.9,26.4C1051.3,619.4,1047.9,638.3,1035,650.5z"/>
	<path fill="#CACACA" d="M961.2,1096.7c-23.7,0-43.3,19.6-43.3,43.3s19.6,43.3,43.3,43.3s43.3-19.6,43.3-43.3
		S984.9,1096.7,961.2,1096.7z"/>
	<path fill="#CACACA" d="M1134.6,1096.7c-23.7,0-43.3,19.6-43.3,43.3s19.6,43.3,43.3,43.3c23.7,0,43.3-19.6,43.3-43.3
		S1158.2,1096.7,1134.6,1096.7z"/>
</g>
</svg>
