<?xml version="1.0" encoding="utf-8"?>
<!-- Generated by IcoMoon.io -->
<!DOCTYPE svg PUBLIC "-//W3C//DTD SVG 1.1//EN" "http://www.w3.org/Graphics/SVG/1.1/DTD/svg11.dtd">
<svg version="1.1" xmlns="http://www.w3.org/2000/svg" xmlns:xlink="http://www.w3.org/1999/xlink" width="250" height="250" viewBox="0 0 250 250">
<g id="icomoon-ignore">
	<line stroke-width="1" x1="" y1="" x2="" y2="" stroke="#449FDB" opacity=""></line>
</g>
	<path d="M205.676 41.325h-25.115c-13.873 0-25.117 11.246-25.117 25.116v25.116c0 7.035 2.896 13.391 7.557 17.95-2.885 6.735-6.533 9.973-9.809 13.661-0.969 1.164-2.064 2.135-1.743 3.749 0 0 0 0 0 0.063 0.321 1.423 1.483 2.458 2.778 2.458 0.064 0 0.194 0 0.324 0 2.521-0.324 5.043-0.775 7.368-1.423 8.905-2.266 17.109-6.093 24.359-11.342h19.397c13.873 0 25.116-11.246 25.116-25.116v-25.116c0.001-13.87-11.242-25.116-25.115-25.116z" fill="#D33131"></path>
	<path d="M205.676 41.325c13.873 0 25.116 11.246 25.116 25.116v25.116c0 13.87-11.243 25.116-25.116 25.116h-19.397c-7.25 5.25-15.454 9.077-24.359 11.342-2.325 0.647-4.847 1.099-7.368 1.423-0.13 0-0.26 0-0.324 0-1.295 0-2.457-1.035-2.778-2.458 0-0.063 0-0.063 0-0.063-0.321-1.614 0.774-2.584 1.743-3.749 3.275-3.688 6.924-6.926 9.809-13.661-4.661-4.56-7.557-10.916-7.557-17.95v-25.116c0-13.871 11.244-25.116 25.117-25.116h25.114zM205.676 26.325h-25.115c-22.121 0-40.117 17.996-40.117 40.116v25.116c0 6.532 1.546 12.814 4.466 18.439-0.345 0.381-0.708 0.774-1.093 1.19-0.621 0.673-1.236 1.34-1.841 2.021l-0.16 0.18-0.153 0.185c-0.064 0.078-0.131 0.152-0.195 0.228-3.769 4.356-5.452 9.068-5.019 14.033v0.819l0.368 1.631c1.882 8.334 9.041 14.154 17.41 14.154h1.285l0.952-0.122c3.475-0.447 6.522-1.038 9.312-1.805 9.007-2.309 17.43-5.946 25.107-10.838h14.793c22.12 0 40.116-17.997 40.116-40.117v-25.114c0-22.12-17.996-40.116-40.116-40.116v0z" fill="#FFFFFF"></path>
</svg>
